<svg xmlns="http://www.w3.org/2000/svg" viewBox="0 0 214.47 428.88"><defs><style>.cls-1{fill:#ff2d20;}.cls-2{fill:#efce30;}.cls-3{fill:#72c034;}.cls-4{fill:#195678;}.cls-5{fill:#b92ccd;}.cls-6{fill:#ce222c;}.cls-7{fill:#e1b712;}.cls-8{fill:#7aad3d;}.cls-9{fill:#302e2f;}.cls-10{fill:#851d90;}.cls-11{fill:#ae1914;}.cls-12{fill:#c69200;}</style></defs><title>Asset 7</title><g id="Layer_2" data-name="Layer 2"><g id="Layer_1-2" data-name="Layer 1"><rect class="cls-1" x="142.96" y="214.44" width="71.48" height="71.48" transform="translate(357.4 500.36) rotate(180)"/><rect class="cls-2" x="142.96" y="142.96" width="71.48" height="71.48" transform="translate(357.4 357.4) rotate(180)"/><rect class="cls-3" x="142.96" y="71.48" width="71.48" height="71.48" transform="translate(357.4 214.44) rotate(180)"/><rect class="cls-4" x="142.99" width="71.48" height="71.48" transform="translate(357.47 71.48) rotate(180)"/><rect class="cls-5" x="71.48" y="285.92" width="71.48" height="71.48" transform="translate(214.44 643.32) rotate(180)"/><rect class="cls-6" x="71.48" y="214.44" width="71.48" height="71.48" transform="translate(214.44 500.36) rotate(180)"/><rect class="cls-7" x="71.48" y="142.96" width="71.48" height="71.48" transform="translate(214.44 357.4) rotate(180)"/><rect class="cls-8" x="71.48" y="71.48" width="71.48" height="71.48" transform="translate(214.44 214.44) rotate(180)"/><rect class="cls-9" y="357.4" width="71.48" height="71.48" transform="translate(71.48 786.28) rotate(180)"/><rect class="cls-10" y="285.92" width="71.48" height="71.48" transform="translate(71.48 643.32) rotate(180)"/><rect class="cls-11" y="214.44" width="71.48" height="71.48" transform="translate(71.48 500.36) rotate(180)"/><rect class="cls-12" y="142.96" width="71.48" height="71.48" transform="translate(71.48 357.4) rotate(180)"/></g></g></svg>